<mxfile host="app.diagrams.net" agent="Mozilla/5.0 (Windows NT 10.0; Win64; x64) AppleWebKit/537.36 (KHTML, like Gecko) Chrome/137.0.0.0 Safari/537.36" version="27.1.4">
  <diagram name="Page-1" id="GUdV3R5L8W7w1DBrIvyL">
    <mxGraphModel dx="2101" dy="660" grid="1" gridSize="10" guides="1" tooltips="1" connect="1" arrows="1" fold="1" page="1" pageScale="1" pageWidth="850" pageHeight="1100" math="0" shadow="0">
      <root>
        <mxCell id="0" />
        <mxCell id="1" parent="0" />
        <mxCell id="Jxo9fAY7886Ufv503r6i-7" style="edgeStyle=orthogonalEdgeStyle;rounded=0;orthogonalLoop=1;jettySize=auto;html=1;entryX=0;entryY=0.5;entryDx=0;entryDy=0;" edge="1" parent="1" source="Jxo9fAY7886Ufv503r6i-1" target="Jxo9fAY7886Ufv503r6i-2">
          <mxGeometry relative="1" as="geometry" />
        </mxCell>
        <mxCell id="Jxo9fAY7886Ufv503r6i-8" style="edgeStyle=orthogonalEdgeStyle;rounded=0;orthogonalLoop=1;jettySize=auto;html=1;entryX=0;entryY=0.5;entryDx=0;entryDy=0;" edge="1" parent="1" source="Jxo9fAY7886Ufv503r6i-1" target="Jxo9fAY7886Ufv503r6i-3">
          <mxGeometry relative="1" as="geometry" />
        </mxCell>
        <mxCell id="Jxo9fAY7886Ufv503r6i-9" style="edgeStyle=orthogonalEdgeStyle;rounded=0;orthogonalLoop=1;jettySize=auto;html=1;" edge="1" parent="1" source="Jxo9fAY7886Ufv503r6i-1" target="Jxo9fAY7886Ufv503r6i-4">
          <mxGeometry relative="1" as="geometry" />
        </mxCell>
        <mxCell id="Jxo9fAY7886Ufv503r6i-10" style="edgeStyle=orthogonalEdgeStyle;rounded=0;orthogonalLoop=1;jettySize=auto;html=1;entryX=0;entryY=0.5;entryDx=0;entryDy=0;" edge="1" parent="1" source="Jxo9fAY7886Ufv503r6i-1" target="Jxo9fAY7886Ufv503r6i-5">
          <mxGeometry relative="1" as="geometry" />
        </mxCell>
        <mxCell id="Jxo9fAY7886Ufv503r6i-11" style="edgeStyle=orthogonalEdgeStyle;rounded=0;orthogonalLoop=1;jettySize=auto;html=1;entryX=0;entryY=0.5;entryDx=0;entryDy=0;" edge="1" parent="1" source="Jxo9fAY7886Ufv503r6i-1" target="Jxo9fAY7886Ufv503r6i-6">
          <mxGeometry relative="1" as="geometry" />
        </mxCell>
        <mxCell id="Jxo9fAY7886Ufv503r6i-1" value="" style="shape=image;verticalLabelPosition=bottom;labelBackgroundColor=default;verticalAlign=top;aspect=fixed;imageAspect=0;image=data:image/png,iVBORw0KGgoAAAANSUhEUgAAAMEAAADOCAYAAACHFGZJAAAAAXNSR0IArs4c6QAAAARnQU1BAACxjwv8YQUAAAAJcEhZcwAADsMAAA7DAcdvqGQAAB0dSURBVHhe7d15mBTVvfDx76mqrl5nhmHfUWRX2VRUBIOIQBRkE8ElaGJMEI03vt43iYk3JiYqmuReifKoURMXvCqLgIgCIiKoKAJRFkVhZN9hmK33rqr7R00nMIzKwCw907/P8/Dow/TgMPZ3quqcqnOUbdsOQmQxreJvCJFtJAKR9SQCkfUkApH1JAKR9SQCkfUkApH1qiWCZMIhlXSw7YofESLzqeqYLDt6xGLfTgvDgDZnGARzqqUtIWpFtbxbS4psFs+OMuvZMOs/SXD4gEUy6eCcdl5C1LxqiUApsC3Y8FGSZ6aW8o9HS9m7I0U85uDIKZLIcNUSAeUheH2gGbBlfZKHflbMi4+XsGtbCitV8dVCZI5qiwDl/mlKgeNA0nL4bFWSpx4oYdazpWz7KlnxM4TICNUXwTGUAt0DsYjDvp0Wq99NMOfZMK/PCLNnh8QgMkuNRJCm6WCYUHzU5ot/JlmxMMabr0Z4760oB/elSCXlylnUvRqNANzTJN1wfx0ttFn1doKFr0RYNj/KpnUJio5YWFbFTxKi9tR8BGnlMRgmFB6wWfBilHkvhFm1LMaugiThUhlGEnWj9iI4hqZDsJFi+1cpZkwL8/yjZfxzVYxImUMqJadIonbVSQRpHlMRyFXsLEgx468RHv2vYjb9My4hiFpVpxFQPpKk6WBZDju3pHjhz2GefLCEDWvjRMrkFEnUvDqPgPIQlOaGcLTQZvOnSWY9Gea158r4Yn2CRFyODKLmZEQEaUpzL5zjMYcdW1OsWZHgzZejLHktwvYtMr8gakZGRZCmFHgDirJShw2rE7wzL8bS+RE+WhZj/26ZXxDVKyMjSNM0MH1QWmzzwaI4M6aX8e4bUTavT3L0iCUxiGqR0RGkaTp4vIpY2GHhjCjPPFLCijej7N2ZIhaVW7bF6akXEaRpOgTyFOEShzlPR3nygVLeWxQhEpYKxKmrVxGkKQ3MABw5aLFwRoxHf1PMe4si8ninOCX1MgLKjwq2DZEym51bkyx6JcZj9xWz5v0YpSVSgzh59TYC0hNthhvDwb0WG1YneOvVKAtmhFm/Jk6ZxCBOQr2OIE1p7vMLSoeCz1O8vyTOktlRViyKsvWLJMmEXDOIb9YgIkhTyh1STcYdNnyc5K1XoiyeE+HTVQn270lhyT1JohINKoI0pYE3ALGowyfLEjz5xxLemh1hZ0GK0mJbbtATx2mQEaQpDUy/e93w7msx7r+9iDdnhjm4z5K5BfEvDTqCNPfIoDA88O68ONN/X8L8F8s4tF+WwRBZEgHlISgNUpbDoX0WKxbG+ftfynhrTpjSYlvmGLJY1kSQpumA4z78X7ApyYqFcV6cVsrHy6MUF9qyWFgWyroIoPx5Zw84wMHdFh+/m+DteTEWzYqwYU2c4iIpIZtkZwTl0usjeQOw7fMki2dHWfhKlE2fJIiEJYRskdURHMvjVege+OzDBB8tjXPkoKwDky0kgmMoBV6/e3Oeku9M1pD/1SLrSQRVsH5tnHWrYhw9LKdK9cGOHSV88MFe1q8/VPFDx5EIquDwPov3FsZ45ckyPlgaJRqRp9oy0YEDYebN+5onntjMkiV7KC5OVHzJcSSCKkilHPbvslj3foKl82MsmBFmw9o44VJbYqhjluVw9GiMZct289JLBcydu4NVqw6wd2+04ktPIBFUke5RWDbs2Jxi0cwoS+ZEef/tGNu+TMpiYXWkpCTBxo1HeP31nbz66lYWLNjJzp1lAJimqvjyE0gEp0Apd30k3QMbP04w86kwb86MsGFNgkP7LFksrJZEIkl27Srjww/389JLW3jiic1s2VKKaSq8Xg3tJN/dJ/kyURn3LlWFpsPqZXGe+0sps/5exvYtSWJR2dK2pliWTTic5LPPDvPYYxuYOvUzVq8+TKNGOqapob77h/9xJIJqoBT4AoqUBWuXJ3jsv0p45ekSigpl74XqlkrZbNlSxEMPreOBBz5j3bojeL0aXu+pv5VP/TPF8dS/n3mOxRzWLk8y9c5iXp9RxsF9UsLpisctvvyyiGnT1nPvvetYu/YI8XgKTVPuWrZV/Ol/LImgmqVv2Y5GHA4dtPhgcZznHy1l8WsR9u+R5xeqyrKgoKCYV1/dyrRpm/jwwwMcORIllbLRNHXS5/3fphr+CFEZd9U8OHrY3a9t+YIYb/xvhJWLoxQdsdxbWMW32r27lAULtjNjxlYWLdrNpk2FlJQk8Xo1dN09AlQHiaCG6R4wDDiw2+Kjd+Isnh3lnflR1q+JUyIP85wglbI5fDjCypX7mDdvO7NnF/Dee3s5cCCK3++++aubRFAbyodUlQZ7t1sseDHK3BcjfLI8xs6CJOEymWyzLIfi4jhffFHE4sW7eeqpTcyZs4P9+6OYpobHU/1v/jSJoBal5xdMP+zcnOLZh8uY/WyYTWsTFBfaWbs+UjxuceBAhBUr9vHYY+uZNm0ze/ZEMU2FYdTcmz9NIqgL5Q/zhPIVn69J8NQDpTzzpxK+2PDt97g0VGvWHGDq1E+ZOnUDBQVlNG6s4/VWfbz/VEkEdUw33cm2LRuSvPCXMh7/YzEFXyYa/FHBshxWr97Pr371MY8+uoktW4oJBGrnJ39FEkEd+9d+bTYUFdpsXpvk+T+HmfmMO/Pc0GKIRNyZ3j/96TOeeupLNm4spKgojmU51TriUxUSQYbQNHdYNZber+29OPOei7B0foSdBUnsej7fFo9bfP55ITNnFvD881v48MN9bNtWSiJho+vVM95/qurwPy0qo5UvIVla7PDpRwnefT3GktcirFoW5eDe+jnZ9vXXxSxevItZs7bx5ps7WbPmMImEjWnW7Zs/LQO+BFEZTXcXFz5ywOb9RXHmPR9hxVsxNq9PUHzUxrIy+zTJsmwOHYqwZs1hXn99By+8sIWlS/dy9GiCQCCz3naZ9dWIE+geML2KIwdsFsyI8vTUUj5aHmXfLst9si3DJtssy6GsLMn27aUsWrST3/72E157bQdFRXGCwZqZ7DpdEkF9UD6/4A1AcaHNcw+HefqREj79KEYknDkTbY4DhYVR3n57J7/+9cdMn/4VqZRNIKDVyajPyZII6hlNh2C+Yv8Oixf+O8z0P5Tw8XvROt/OtqQkwRtvbOP3v1/L9OlfUliYIDdXz4hz/u9SD75EUZGmge1AIumw/csk856L8uSDJWxYFydZizE4DqSSDu8s3cWDD37KjBkFfP11KY5jo1RmXPSejHryZYqKlALdgGQCDu212PhJgvkvRJj5tzI2r6/5ZSTLypKsWXOA/3l0AzNnbePTTw9z6FCMVMrB46k/AVCdETiOu9qzqF3p/dpSKdi6PsX7i2MsmhllxVvRGplsKytLsmFDIXPnbmPWrG0sXryTLVuKsW0nY4Y8q6pavmTDo/B43H+3LYmhLmi6e2NeKgnrVsZZPCvK0nlRPv0wzv7dqdO+ZTuRsPj662JWrNjHnDlfM3NmAR99dAjDUJjmyT/Unomq5UsP5Wi066jTqoOBx1RYFhk3dJctlAa+kKK02GHFwjgzpod55/UoO7YkKSmyq/zMs2U5HDkSZdOmo7z88laeeOJzli3bRzLpjvo0BNXyt8htpDHm5hA/uSeHPgM8OCn3m+fYclSoK5oOviCES22WzI7y0F1FLF8Y4eghi1Tqu1fOcxyHRNzmwP4oL7+8hf/8z9UsWrSXWCzVYN78adX6t+lwlsH1P83hnmmN6HWJSazUIR6Vo0JdcmeeFbYN85+L8sgvinh7foTCQ99+SNi3L8wrr37FTyevZP78Xei6QyCQmZNdp6taI9ANRTBXo0Nng2t/FOKO+3M5p58HTYNEtPziWdQ6pdxhVTQoOmyz+JUY//jvUj5858QlCq2Uw4IFO/nDH/7JvHk7icWSgIOmnd6KDpmsWiOg/BtuehWt2hn0vMjL1TcGGHljgC69PDi2u9G2xFAHyodUHaCkyObrL1Ls+OrEG/Ji8RRbtxazcWMRxcUJdF01yJ/+x6r2CI7lDyi6nmsycLif4eP9DBrh44yuHhIRdxRDYqh9qvypNivlEI+d+D8glbKJxdwL6Jp8rjeT1GgEaXn5Gn37exl5Q5DLR/no09+kWWsN5YCVkhjqglIK9Q3nN6e7mFV9UysRpOXla1wyxM+t9+Ry2dU+2nfyEMpxnyWt7w+NiPqrViOgfBw7mKMYPjbIlN/mMOhqL42baTiWe0SQo4KobbUewbHym+qMmBjktntzuXysDw1FLOzIUUHUqjqNQCnwmIrW7Q2uvDbInX/MZfBoL44NiZjEIGpHnUaQ5jEVjZpodDnHw9CxQW75/zmc/z0vPr8iEZXrBVGzMiKCNI+paNPBoN8gH0PH+hl2jZ/u53kwfW4Mcr0gakJGRZBmeKDLOSaDR/kZNs7PhZeZdOhioGnl8wtyG4aoRhkZQVowpNH7Ii9jbg5x1XV+uvUyadLs30OqcmQQ1SGjI0jLzdPo9z0ft/82lxE/8NOijY7HdO9QlTtVxemqFxGkmV7FpUMD3PM/+Vx9U4D8xhrhIqfK98gLcax6FQHlk23+oOLSoX6m3JfLhNsCNG6uES6WIVVxaupdBJTPLwRzNNp2NBgw3M8Nt4cYcYMfX0CRjLv3I8kpkjhZ9TKCNMNQNGmuc3Zfk8tG+hl/S5ALBpkEgopEXI4M4uTU6wjSPKaiZVuD713lZ+g4P4NH+uje1ySYo0jGZEhVfLsGEcGxOnU3uXpSiJE3Bug7wEvrDgamV5FKSAyicg0uAgBdhx69TMb/OMSEKQE69zQIBNwNIBxb5hfE8RpkBGmBoKLn+V6m/CaP236fQ4t2OnYKLHmqTRyjQUeQ5jEVXXqY3P1gI276f0E6dNFJRB1S1bw6m6ifsiKC9C3bjZpo9Onv44YpOVxza5AOXT1ESx0ZUs1yWRHBsXLyNDp283DJFT5GXhdg+LV+mrTQSMTkNClbZV0E4C5I1biZTs9+JkPHBbhinJ9+g0zym7qPeVrJip8hGrKsjCDN8CiatdIZcnWA0T8MMmC4l87neshtnEVLLYjsjiBNKWjdzmD0pBDX3RGkzwATjykhZAuJoILOPUx69/PRopVR8UOigZIIRNaTCKrAtt09uqyUDCHVB8kkJ7WHm0RQBT16ebngUi/NW+tEShzsE9ezFRkglXIIh206d85h8OBWdO2aX/Elx5EIqqDNGQb9h/gYNt7PRUO85OYrEjHZoioTOM6/3/xt2wa48sr2TJzYiUGDWtO8eaDiy48jEVSBrkObDgaXDvczalKAS4b76NbbQzDkboIhzy/UDctysCyH/HyTiy9uxVVXtefmmztxxRVtadkyWPHlJ5AIToHHVLQ708OYH4SYeFuQ3peY5Q//K3eVbbllu1ZYlrvXhd9v0L59Dpdd1ppf/6oP48Z2olWr4ElvJniSLxOV0XQ4o5OHH96Vy8Tbg3Tr7cHQ3TMjWQWj5qQXbrZthd9vcMklLbjnnp5MmXIOjRrraHrFz/h2EkE16dHLy09+mcuU3+XS+VwPZUcd2YikBjgORCI2kYjNoEEtuP/+8/j5z3ty1lmNKr70pEkEVVBSbBMurfxcR9fBV74zz423h7j99zm076qTikMqIUeF02XbDtGo++YfMKApD0/tx6239qBLl3y8Xh1NO/UZfomgCj5fl+DNWWFWLYsSCZ8Yg1Lg87v7tfW+2MvEn4QYe0uA1mfopFJuDHJkqLpYzEYpjb59mvDLX/Rl0qRu9OnbhBYtAvh8VTz3qYREUAVHCy02rk2yeFaM+f8Is35NnHjsxI0INQ1CuRrdepoMHO5j5PUBLr3SS6v2Oql4+fML4jvF4zaOA9265TF6dAcmTuzEkCGt6d49H7/fqLYtpSSCKtB1iEccCjYlWbYgxpLZUd59I0rBF4lKjwwAjRrrXHiZj+HjAwwe5aPPJV4aN9dIxmV+oTKO487yJpMO7duHGDCgFWPHnsn48Wdy4UXN8fmr6Z1/DImgijRdYfoVaLBxdYJXnyxj0ewon32cYP8eq9IdIQFatjG4bESAibeF6D/US4ezDAIh5Y5yyPwCjuMOedo25OebdO/emDFjOjB5cjeGDm1H06bfPuF1OiSCU6Q0MP0Kw6P4+J04L04r441XwhR8maS02Mau5MCgadC8lc6o692Nzvte6iGvkYaWXgWjks/JBnb5CiCaptGkiZ8RI9oy9aF+jBrVkWbNau7NnyYRnCalgT+kSCYcVi6I8/h/lTDz2VJKi6wTrhXSNB2attCZdEcet9+fy/mDTJSCWNjJyhDKymxCIQ/jxnVg+vSLmTSpO6Gc6jvn/y4SQTVxjwzu+eya5UkeuKOYuS+UceSQVelRgfIjQ9szDCb8JIfb78ul/zAviZhDopKL7YbGcaC01Mbr1bn22g7ce28fJkzoRKNGvtMa7jwVEkE1Upo7TJpMOBQesfhgUZy/TS1l6fwwB/dVPiTk8Sjy8jW6nGsy4rogt/4yh579TVIxSDTAJSQty/nXZNeoUe24666eXHPNmfTokU9enhddr90AkAhqgHJPdzQDigpttm5I8u7rceY+H+b9xVEKD1V+FewPKNqeaXD+93x8f3yAsT8M0KWXgWGUr6daz48M6ckur9dgwIDmTLntbMaMOZOLL25B27Y5+Hx19ySfRFCDdMP9tX+XxZr3Erw9N8bSuVE+Wx0nXHrixXN6sq17T5Mh4wIMHevnostN2nUy0PX6O/Mcj7unPeeck8+VV7Zj/PiOXHvtmXTunIfXe/qTXadLIqhpCjxe9587t6ZYMifKgpcjrFoaY/tXSSLhys///QHF+QN8XH1jkCvG+ujex92vzUrVj/3a0uP9SkGbNiEuuqgFEyd25Oabu9CnTzN0o/ZPe76JRFBLVHkMSoevN6T4+yNlzH0xzKa1cQoPWiTilb+r85vqDBzmZ9J/hBgy3keT5tq/Jowy8U5Vx3GHPAECAQ/t2uXwwx925o47zmbgwNYEAp6Kn1LnJIJaphQYXgg1Vmz4OMG035Tw4uNlbN2c+Naf8PlNdIaODnL/040ZMs6H3+eumlfxlKqupVIOsZhNbq7JnXd2Y9q0/lx+eVvy8rwVX5oxJII65DEVvqDi87UJnn6wjCenFrN9yzcvf6cUeH2KoWOC3PVQLkOv8ZKTp4iW1v38QirlUFJi07JlgMmTu/LXvw5g4MA2dXrBe7IkgjqkykeSbAfKSmw2fZLkH38q43+fLGXP9hTJSlbNVspdcr5tR4Nh44L84M4Qg0b50A2IltXNFlUlJTbNmvn4wQ86cvfdPRk2rB0tW/rx+Wpvwut0SAQZQNPcOYZ4zGHPjhRrlid46fEyls6PsGdHqtK7Tj0eRdOWOj36erlitJ/xtwa5aIi3fBTJvQenJlmWQzxuEwgYjB7dnptv7srIke0599zGNGnirxdv/jSJIINoOugeKCmy2bA6wXtvxnhrZoQPl0bZv7uSEnCHVNuf5WHAMHe/tqFj/XTtbeLz1cwWVZbl3uGZk+Ohf/8WXHNNR8aPP4NBg1rTtm0OHk/9e0vVv684C2g6+HMUh/bafLAoxpuvRli+MMqmdQmKi06cXwDwehWde5iMuinIsGv8nDfApM0ZBp70fm0nnllViW3/+yd/1655DB7clhtv7MT113fmzDMzY7z/VEkEGUw3wONVHNhts2ROjJceL2PNyhh7tqeIhCuPwTAUvS/0MnFyiJE3+ul8todQjoamndr8Qnq83+PRyM/3ccEFzbnlR12ZPLkH3bs3rvjyekkiyHQKDPPfM8/PPFDGUw8Xs351nNIiu9LrBQB/UKPf93zc8oscJkwJkN/c3a/NsQAbnO+o4dgPRyIOPXo04te/7sndd/fkvPObY2TQZNfpkgjqCaXA8EAoX3Fgp80zD5Xx1MMlrFsV+8aJNoCcXI1+l/q458+NuP7OIHmNNeIx5zs3InHH+x3atg3yyCPncc89fenVq1m9GPKsKv2+++77XcXfFJUr2Jxk+1cW4RLnpBd2qlbKjYH0rchHbbZuTFGwOYnX7z69VpFSoOsKr0/RvJVOj74meU00io44hHI0zr/0+EmseNzi/fcPEYtZ3HJLJyZM6ETnznnk5JgYhlavRn1OlrJt+5t/jIjjLJkXZvkbcQ7sstBPfL/VOrv8aTSfX9Gyvc6ZXQz6DfLS/izPNz6La9tw+IDFji1JvH6NnheYx308FrPYtKmYcDjJ2Wfn0qSJ/7iPN0QSQRVkWgRptuW+uf0BxVk9PHTtbXB2H5NW7Qy8vspjSCbdWWbTe/zH0486KuXOX2SDLPlrNmya7l4vxOMOn34QZ+lrUd6eG2Xtyjj7dqWwKplF9njUCQFQPnGn69kTABJBw6Jp4AspSo86rFwY57V/hFm2IMqWjUmKCr/5medsJxE0QJoBvhAcPWKz6NUoj/+2mJWLohw97C4JU9n8QjaTCBow3QBfUBGLOcz9e5T7pxSxcnGUkqOVnB9lMYmggVPKfZBH80AkbDP/uQh/e7jUjaFYDglIBNnh2JGecNhh2+YUi2ZGWbEwWvGlWUkiyCbls87JhMOB3RYH9shpERJBdlIaGB53CUkhEQghEQghEYisJxGIrCcRiKwnEYisJxGIrCcRiKwnEYisJxGIrCcRiKwnEYisJxGIrCcRiKwnEYisJxGIrCcRiKwnEYisJxGIrCcRiKwnEYisJxGIrCcRiKwnEYisJxGIrCcRVEF6RxjRsEgEVZDfVCMQVCRjbhCiYZAIqqBjV5PBI3xcfIVJbr5GLCwbXjQEEkEVNGupc+FlPr4/IcDA73vpcZ6JP6CwUnJkqM8kgirymIozOnu4ckKQa24N0Lu/SesOBqZXuTvGy5Gh3pEITpHXq+jUzeSWu3OZcFuArr08BEIKpcovnmWTvHpDIqgG5/TxMuXeXG6+O8SZPTxEih1SqYqvEplKIqgmhkdxdh8vP7orh9t/l0O7TjrhIodUwt0cW2QuiaCaKAVev6JZK51eF3m5YUqI634WpNUZOnYKUgk5RcpUEkE10zQI5Wp06mEyYKiPMTcFuexqHy3b61gpsJIVP0PUNYmghmgaNGqsc/4AL0PG+Bky2s95A02attKIhx0ZUs0gEkEtaNnGYNCVfkbfFGTgcB8du3kI5WnYMr+QESSCWqLp0Lq9wfDxAX56bw59B3po3ETH41E4jswv1CWJoJYZhqJlW4NJd+Qy+XchelzgQdcVybiEUFckgjrUvqOHm/8jh8m/yaHPQJNE3CERlSGk2iYR1CHDUOTkaXTtaTL+liA/uSeHs/uZhItlfqE2SQQZwB9QtG5v0OdiHyOuC3DdlCAdzzZQDu5pksRQoySCDBIIKbqda3L5KD/DxvkZ+H0fbTsaKCWTbTVJIsgwSgN/UOOCgT5G3BBg8Cgf515g0rSljm2DJfckVTuJIIPlN9G57Co/190WYvAYH63bGwRDCtuSkaTqJBHUA01b6AwdHeCuB3O5bJQPr1fh2G4Icr1w+iSCeiJ9G8aV1wb5zV8bMeAqL16fIh6Wo8LpkgjqEaWB16do0UZn5MQgP/5lDgNHmHh9iljYkRhOkURQD+mGoklznW69TIaPC3LNj4P0G+zFcSAZlxiqSiKox3x+RbuOBv0G+Rg61s/VNwTo1tdEo3x+QWI4KRJBAxAIKrqcY3LV9UGGjfPTb5CXdh11TK+SmeeTIBE0ILoOvS/0cv3Pcvj+RD9de3nIb6yhaeXzCxJDpSSCBsgfUFw82M9NPw8xcpKfFm10tPJVMBxZCeMEEkEDlttIZ+DwAHc9kMf4yUE0HRJReaqtIomgAVPKPUXKy9fpP9jHfdPzGTkpQF6+RiziYFlySABQtm3LdyKLHNpvsasgxYa1cRo11hh1Y6jiS7KORJCFUkmHfbstbMuhQydPxQ9nHYlAZD25JhBZTyIQWU8iEFlPIhBZTyIQWU8iEFlPIhBZTyIQWe//AH4YPEYM2VaUAAAAAElFTkSuQmCC;" vertex="1" parent="1">
          <mxGeometry x="-60" y="215" width="84.32" height="90" as="geometry" />
        </mxCell>
        <mxCell id="Jxo9fAY7886Ufv503r6i-2" value="&lt;b&gt;AWS&lt;/b&gt;" style="rounded=0;whiteSpace=wrap;html=1;fillColor=#f5f5f5;gradientColor=#b3b3b3;strokeColor=#666666;" vertex="1" parent="1">
          <mxGeometry x="320" y="30" width="120" height="60" as="geometry" />
        </mxCell>
        <mxCell id="Jxo9fAY7886Ufv503r6i-3" value="&lt;b&gt;Azure&lt;/b&gt;" style="rounded=0;whiteSpace=wrap;html=1;fillColor=#f8cecc;gradientColor=#ea6b66;strokeColor=#b85450;" vertex="1" parent="1">
          <mxGeometry x="320" y="130" width="120" height="60" as="geometry" />
        </mxCell>
        <mxCell id="Jxo9fAY7886Ufv503r6i-4" value="&lt;b&gt;GCP&lt;/b&gt;" style="rounded=0;whiteSpace=wrap;html=1;fillColor=#d5e8d4;gradientColor=#97d077;strokeColor=#82b366;" vertex="1" parent="1">
          <mxGeometry x="320" y="230" width="120" height="60" as="geometry" />
        </mxCell>
        <mxCell id="Jxo9fAY7886Ufv503r6i-5" value="&lt;b&gt;GitHub&lt;/b&gt;" style="rounded=0;whiteSpace=wrap;html=1;fillColor=#ffcd28;gradientColor=#ffa500;strokeColor=#d79b00;" vertex="1" parent="1">
          <mxGeometry x="320" y="330" width="120" height="60" as="geometry" />
        </mxCell>
        <mxCell id="Jxo9fAY7886Ufv503r6i-6" value="&lt;b&gt;Our custom system&lt;/b&gt;" style="rounded=0;whiteSpace=wrap;html=1;fillColor=#e6d0de;gradientColor=#d5739d;strokeColor=#996185;" vertex="1" parent="1">
          <mxGeometry x="320" y="430" width="120" height="60" as="geometry" />
        </mxCell>
        <mxCell id="Jxo9fAY7886Ufv503r6i-12" value="&lt;b&gt;providers&lt;/b&gt;" style="text;html=1;align=center;verticalAlign=middle;resizable=0;points=[];autosize=1;strokeColor=none;fillColor=none;" vertex="1" parent="1">
          <mxGeometry x="40" y="215" width="80" height="30" as="geometry" />
        </mxCell>
        <mxCell id="Jxo9fAY7886Ufv503r6i-13" value="&lt;b&gt;Authentication&lt;/b&gt;" style="text;html=1;align=center;verticalAlign=middle;resizable=0;points=[];autosize=1;strokeColor=none;fillColor=none;" vertex="1" parent="1">
          <mxGeometry x="60" y="180" width="110" height="30" as="geometry" />
        </mxCell>
      </root>
    </mxGraphModel>
  </diagram>
</mxfile>
